<?xml version="1.0" encoding="utf-8"?>
<svg width="41" height="32" viewBox="0 0 41 32" fill="none" xmlns="http://www.w3.org/2000/svg">
<rect x="1" y="1" width="39" height="30" rx="4" fill="#FCFBFF" stroke="#1519F2" stroke-width="2"/>
<line x1="7" y1="6" x2="33" y2="6" stroke="#1519F2" stroke-width="2"/>
<line x1="20" y1="12" x2="33" y2="12" stroke="#1519F2" stroke-width="2"/>
<line x1="20" y1="18" x2="33" y2="18" stroke="#1519F2" stroke-width="2"/>
<path d="M7.09434 18.509C4.49724 24.6854 16.1989 23.9559 33.0943 23.509" stroke="#1519F2" stroke-width="2"/>
<mask id="path-6-inside-1_0_1" fill="white">
<path d="M19 13.2759C19 16.7419 16.0899 19.5517 12.5 19.5517C8.91015 19.5517 6 16.7419 6 13.2759C6 9.8098 8.91015 7 12.5 7C16.0899 7 19 9.8098 19 13.2759ZM7.15954 13.2759C7.15954 16.1236 9.55054 18.4322 12.5 18.4322C15.4495 18.4322 17.8405 16.1236 17.8405 13.2759C17.8405 10.4281 15.4495 8.11955 12.5 8.11955C9.55054 8.11955 7.15954 10.4281 7.15954 13.2759Z"/>
</mask>
<path d="M19 13.2759C19 16.7419 16.0899 19.5517 12.5 19.5517C8.91015 19.5517 6 16.7419 6 13.2759C6 9.8098 8.91015 7 12.5 7C16.0899 7 19 9.8098 19 13.2759ZM7.15954 13.2759C7.15954 16.1236 9.55054 18.4322 12.5 18.4322C15.4495 18.4322 17.8405 16.1236 17.8405 13.2759C17.8405 10.4281 15.4495 8.11955 12.5 8.11955C9.55054 8.11955 7.15954 10.4281 7.15954 13.2759Z" fill="#D9D9D9" stroke="#1519F2" stroke-width="2" mask="url(#path-6-inside-1_0_1)"/>
<path d="M11.2112 11.1557L15.1616 13.3394L11.1272 15.6687L11.2112 11.1557Z" fill="#1519F2"/>
</svg>

