<?xml version="1.0" encoding="utf-8"?>
<svg width="46" height="33" viewBox="0 0 46 33" fill="none" xmlns="http://www.w3.org/2000/svg">
<path d="M0.5 6.87089C0.5 6.17154 0.974255 5.56123 1.65193 5.38849L22.4154 0.095851C22.6621 0.0329463 22.9207 0.0326459 23.1676 0.0949766L44.1219 5.38441C44.8124 5.55869 45.2912 6.18632 45.277 6.89827L44.8014 30.6761C44.7795 31.7753 43.6231 32.4854 42.6279 32.0182C30.0893 26.1319 35.2332 26.591 41.6792 29.202C42.7161 29.622 43.8808 28.8776 43.8808 27.7589V7.55105C43.8808 6.84038 43.3914 6.22329 42.6994 6.06145L32.2093 3.60813C31.2496 3.38367 30.3311 4.11209 30.3311 5.09773V12.6755C30.3311 13.5204 31.016 14.2053 31.8609 14.2053H33.7732C34.0448 14.2053 34.2649 14.4254 34.2649 14.697C34.2649 14.9686 34.0448 15.1887 33.7732 15.1887H30.7682C29.9233 15.1887 29.2384 14.5038 29.2384 13.6589V3.61325C29.2384 2.90442 28.7515 2.28843 28.0618 2.12478L23.1804 0.966483C22.9253 0.905959 22.659 0.911995 22.4069 0.984013L18.5466 2.08696C17.8899 2.27461 17.4371 2.87488 17.4371 3.5579V13.6589C17.4371 14.5038 16.7522 15.1887 15.9073 15.1887H12.6838C12.4122 15.1887 12.1921 14.9686 12.1921 14.697C12.1921 14.4254 12.4122 14.2053 12.6838 14.2053H15.0331C15.878 14.2053 16.5629 13.5204 16.5629 12.6755V4.39518C16.5629 3.39005 15.6101 2.65805 14.6389 2.91703L2.94689 6.03491C2.27721 6.21349 1.81126 6.81998 1.81126 7.51306V25.6161C1.81126 26.6649 2.83932 27.4021 3.82927 27.0554C6.61802 26.079 11.4963 24.333 13.1755 23.4934C15.5438 22.3092 5.82243 26.9578 1.98097 29.1857C1.86761 29.2514 1.78183 29.3485 1.72691 29.4675C1.43797 30.0936 0.5 29.8876 0.5 29.198V6.87089Z" fill="#191DFB"/>
<line x1="23.2285" y1="3.0596" x2="23.2285" y2="33" stroke="#2517EB" stroke-width="2.4"/>
<path d="M8.91391 19.2318L11.5364 21.745C15.993 16.3958 18.0069 16.0879 20.9338 19.2318" stroke="#231CE2" stroke-width="2"/>
<path d="M27.792 20.3411C36.0398 19.1257 40.7119 22.2914 41.5602 26.0232" stroke="#2564EA" stroke-width="2"/>
</svg>

